<svg xmlns="http://www.w3.org/2000/svg" xmlns:xlink="http://www.w3.org/1999/xlink" width="500" zoomAndPan="magnify" viewBox="0 0 375 374.999991" height="500" preserveAspectRatio="xMidYMid meet" version="1.0"><defs><clipPath id="4775b58cd7"><path d="M 52.292969 86.242188 L 323 86.242188 L 323 288.742188 L 52.292969 288.742188 Z M 52.292969 86.242188 " clip-rule="nonzero"/></clipPath></defs><rect x="-37.5" width="450" fill="#ffffff" y="-37.499999" height="449.999989" fill-opacity="1"/><rect x="-37.5" width="450" fill="#d8e8ed" y="-37.499999" height="449.999989" fill-opacity="1"/><g clip-path="url(#4775b58cd7)"><path fill="#e6affc" d="M 301.484375 288.714844 L 73.246094 288.714844 C 71.511719 288.488281 70.25 288.292969 69.460938 288.128906 C 62.148438 286.589844 56.082031 280.863281 53.644531 274.027344 C 52.914062 271.984375 52.644531 269.84375 52.292969 267.671875 L 52.292969 106.953125 C 52.671875 105.921875 52.644531 104.761719 52.855469 103.882812 C 53.148438 102.679688 53.441406 101.339844 53.921875 100.222656 C 57.003906 93.011719 62.382812 88.558594 70.058594 86.855469 C 70.765625 86.699219 71.472656 86.605469 72.179688 86.574219 C 73.136719 86.535156 74.066406 86.308594 75.03125 86.308594 C 149.386719 86.277344 224.539062 86.277344 300.484375 86.308594 C 301.066406 86.308594 301.640625 86.351562 302.210938 86.4375 C 302.777344 86.523438 303.351562 86.605469 303.925781 86.679688 C 305.914062 86.941406 307.671875 87.414062 309.195312 88.097656 C 316.464844 91.339844 321.832031 98.167969 322.363281 106.300781 C 322.449219 107.617188 322.582031 108.902344 322.574219 110.207031 C 322.269531 150.566406 322.4375 190.953125 322.441406 234.160156 C 322.441406 243.414062 322.6875 253.152344 322.554688 262.902344 C 322.515625 265.90625 322.449219 267.9375 322.347656 269 C 321.746094 275.386719 318.730469 280.59375 313.304688 284.617188 C 310.722656 286.53125 307.832031 287.75 304.640625 288.265625 C 303.589844 288.4375 302.539062 288.585938 301.484375 288.714844 Z M 183.414062 207.984375 C 186.847656 209.28125 190.878906 208.4375 193.542969 205.957031 C 217.101562 184.023438 240.519531 162.316406 263.808594 140.828125 C 277.257812 128.417969 290.59375 116.070312 303.8125 103.785156 C 304.015625 103.597656 304.023438 103.402344 303.832031 103.199219 C 303.53125 102.882812 303.082031 102.722656 302.488281 102.722656 C 225.359375 102.699219 149.164062 102.683594 73.90625 102.683594 C 72.429688 102.683594 71.585938 103.027344 70.589844 103.980469 C 70.445312 104.117188 70.445312 104.253906 70.597656 104.386719 C 71.402344 105.09375 72.207031 105.816406 73.011719 106.550781 C 81.992188 114.753906 92.058594 124.058594 103.21875 134.46875 C 127.175781 156.820312 150.425781 178.425781 172.96875 199.289062 C 174.96875 201.140625 177.023438 203.039062 179.132812 204.984375 C 180.824219 206.542969 182.25 207.542969 183.414062 207.984375 Z M 305.757812 125.21875 C 305.757812 125.164062 305.730469 125.117188 305.675781 125.074219 C 305.621094 125.03125 305.566406 125.027344 305.507812 125.070312 C 303.652344 126.503906 302.160156 128.1875 300.394531 129.832031 C 281.261719 147.605469 261.636719 165.914062 241.511719 184.761719 C 241.320312 184.945312 241.117188 185.105469 240.902344 185.246094 C 240.597656 185.453125 240.585938 185.679688 240.867188 185.917969 C 241.539062 186.488281 242.128906 187.011719 242.644531 187.496094 C 253.523438 197.691406 265.234375 208.726562 277.777344 220.601562 C 280.199219 222.894531 282.332031 224.945312 284.164062 226.746094 C 286.160156 228.707031 288.277344 230.558594 290.269531 232.511719 C 291.824219 234.039062 293.347656 235.480469 294.835938 236.832031 C 297.316406 239.078125 299.585938 241.445312 302.078125 243.699219 C 303.257812 244.761719 304.402344 245.871094 305.507812 247.023438 C 305.550781 247.070312 305.605469 247.089844 305.671875 247.078125 C 305.773438 247.058594 305.824219 247.011719 305.824219 246.9375 C 305.828125 206.429688 305.824219 165.941406 305.816406 125.46875 C 305.816406 125.414062 305.804688 125.363281 305.78125 125.316406 C 305.765625 125.289062 305.757812 125.257812 305.757812 125.21875 Z M 69.382812 247.082031 C 71.058594 245.410156 72.871094 243.644531 74.824219 241.785156 C 92.324219 225.140625 109.609375 208.636719 126.675781 192.269531 C 128.617188 190.40625 130.660156 188.476562 132.800781 186.484375 C 133.222656 186.097656 133.21875 185.710938 132.792969 185.328125 C 131.96875 184.582031 131.1875 183.859375 130.449219 183.167969 C 109.828125 163.859375 90.410156 145.769531 72.199219 128.90625 C 71.109375 127.894531 70.066406 126.921875 69.070312 125.984375 C 69.023438 125.941406 69.003906 125.941406 69.003906 125.984375 L 68.925781 246.886719 C 68.925781 247.324219 69.078125 247.386719 69.382812 247.082031 Z M 188.28125 225.488281 C 180.082031 225.859375 173.46875 222.890625 167.472656 217.242188 C 162.015625 212.105469 155.277344 205.796875 147.265625 198.3125 C 146.925781 198 146.5625 197.695312 146.171875 197.398438 C 146.058594 197.3125 145.929688 197.273438 145.785156 197.28125 C 145.644531 197.289062 145.519531 197.339844 145.414062 197.4375 C 144.40625 198.351562 143.453125 199.378906 142.476562 200.308594 C 121.574219 220.277344 100.871094 240.101562 80.363281 259.785156 C 77.773438 262.273438 75.464844 264.445312 73.4375 266.296875 C 72.292969 267.34375 71.214844 268.375 70.203125 269.394531 C 69.929688 269.667969 69.925781 269.945312 70.191406 270.230469 C 71.8125 271.957031 73.242188 271.835938 75.859375 271.835938 C 150.8125 271.835938 225.765625 271.835938 300.71875 271.835938 C 302.566406 271.835938 303.59375 271.652344 304.578125 270.15625 C 304.804688 269.808594 304.769531 269.496094 304.46875 269.210938 C 280.316406 246.363281 256.171875 223.488281 232.035156 200.589844 C 230.6875 199.3125 229.550781 198.160156 228.613281 197.136719 C 228.492188 197 228.339844 196.929688 228.15625 196.921875 C 227.972656 196.914062 227.816406 196.972656 227.679688 197.097656 C 220.875 203.386719 214.121094 209.769531 207.375 216.109375 C 204.789062 218.542969 202.785156 220.21875 201.367188 221.136719 C 197.191406 223.828125 192.828125 225.28125 188.28125 225.488281 Z M 188.28125 225.488281 " fill-opacity="1" fill-rule="nonzero"/></g></svg>