<svg xmlns="http://www.w3.org/2000/svg" xmlns:xlink="http://www.w3.org/1999/xlink" width="500" zoomAndPan="magnify" viewBox="0 0 375 374.999991" height="500" preserveAspectRatio="xMidYMid meet" version="1.0"><defs><clipPath id="e0b94b30b2"><path d="M 51.75 51.75 L 323.25 51.75 L 323.25 323.25 L 51.75 323.25 Z M 51.75 51.75 " clip-rule="nonzero"/></clipPath></defs><rect x="-37.5" width="450" fill="#ffffff" y="-37.499999" height="449.999989" fill-opacity="1"/><rect x="-37.5" width="450" fill="#d8e8ed" y="-37.499999" height="449.999989" fill-opacity="1"/><g clip-path="url(#e0b94b30b2)"><path fill="#e6affc" d="M 112.824219 51.75 L 262.007812 51.75 C 278.867188 51.75 294.132812 58.589844 305.265625 69.722656 C 316.242188 80.695312 323.238281 96.125 323.238281 112.824219 L 323.238281 262.007812 C 323.238281 278.867188 316.242188 294.132812 305.265625 305.265625 C 294.132812 316.242188 278.867188 323.238281 262.007812 323.238281 L 112.824219 323.238281 C 96.125 323.238281 80.695312 316.242188 69.722656 305.265625 C 58.589844 294.132812 51.75 278.867188 51.75 262.007812 L 51.75 112.824219 C 51.75 96.125 58.589844 80.695312 69.722656 69.722656 C 80.695312 58.589844 96.125 51.75 112.824219 51.75 Z M 262.007812 75.925781 L 112.824219 75.925781 C 102.644531 75.925781 93.421875 80.0625 86.742188 86.742188 C 80.0625 93.421875 75.925781 102.644531 75.925781 112.824219 L 75.925781 262.007812 C 75.925781 272.1875 80.0625 281.410156 86.742188 288.089844 C 93.421875 294.929688 102.644531 299.0625 112.824219 299.0625 L 262.007812 299.0625 C 272.1875 299.0625 281.410156 294.929688 288.089844 288.089844 C 294.929688 281.410156 299.0625 272.1875 299.0625 262.007812 L 299.0625 112.824219 C 299.0625 102.644531 294.929688 93.421875 288.089844 86.742188 C 281.410156 80.0625 272.1875 75.925781 262.007812 75.925781 Z M 262.007812 75.925781 " fill-opacity="1" fill-rule="nonzero"/></g><path fill="#e6affc" d="M 263.597656 99.144531 C 266.9375 99.144531 270.117188 100.417969 272.1875 102.644531 C 274.414062 104.871094 275.84375 107.894531 275.84375 111.234375 C 275.84375 114.574219 274.414062 117.753906 272.1875 119.820312 C 270.117188 122.046875 266.9375 123.480469 263.597656 123.480469 C 260.257812 123.480469 257.234375 122.046875 255.007812 119.820312 C 252.78125 117.753906 251.511719 114.574219 251.511719 111.234375 C 251.511719 107.894531 252.78125 104.871094 255.007812 102.644531 C 257.234375 100.417969 260.257812 99.144531 263.597656 99.144531 Z M 263.597656 99.144531 " fill-opacity="1" fill-rule="nonzero"/><path fill="#e6affc" d="M 187.414062 121.570312 C 205.707031 121.570312 222.085938 129.046875 234.015625 140.816406 C 245.945312 152.742188 253.417969 169.285156 253.417969 187.414062 C 253.417969 205.707031 245.945312 222.085938 234.015625 234.015625 C 222.085938 245.945312 205.707031 253.417969 187.414062 253.417969 C 169.285156 253.417969 152.742188 245.945312 140.816406 234.015625 C 129.046875 222.085938 121.570312 205.707031 121.570312 187.414062 C 121.570312 169.285156 129.046875 152.742188 140.816406 140.816406 C 152.742188 129.046875 169.285156 121.570312 187.414062 121.570312 Z M 216.839844 158.152344 C 209.363281 150.675781 198.867188 145.90625 187.414062 145.90625 C 175.964844 145.90625 165.625 150.675781 158.152344 158.152344 C 150.675781 165.625 145.90625 175.964844 145.90625 187.414062 C 145.90625 198.867188 150.675781 209.363281 158.152344 216.839844 C 165.625 224.3125 175.964844 228.925781 187.414062 228.925781 C 198.867188 228.925781 209.363281 224.3125 216.839844 216.839844 C 224.3125 209.363281 228.925781 198.867188 228.925781 187.414062 C 228.925781 175.964844 224.3125 165.625 216.839844 158.152344 Z M 216.839844 158.152344 " fill-opacity="1" fill-rule="nonzero"/></svg>