<svg xmlns="http://www.w3.org/2000/svg" xmlns:xlink="http://www.w3.org/1999/xlink" width="257" zoomAndPan="magnify" viewBox="0 0 192.75 191.999996" height="256" preserveAspectRatio="xMidYMid meet" version="1.0"><defs><clipPath id="48c1bc43ca"><path d="M 0 0.125 L 192.5 0.125 L 192.5 191.875 L 0 191.875 Z M 0 0.125 " clip-rule="nonzero"/></clipPath><clipPath id="978c019524"><path d="M 48.976562 45.339844 L 143.355469 45.339844 L 143.355469 147.207031 L 48.976562 147.207031 Z M 48.976562 45.339844 " clip-rule="nonzero"/></clipPath></defs><g clip-path="url(#48c1bc43ca)"><path fill="#ffffff" d="M 0 0.125 L 192.5 0.125 L 192.5 191.875 L 0 191.875 Z M 0 0.125 " fill-opacity="1" fill-rule="nonzero"/><path fill="#f1ceff" d="M 0 0.125 L 192.5 0.125 L 192.5 191.875 L 0 191.875 Z M 0 0.125 " fill-opacity="1" fill-rule="nonzero"/></g><g clip-path="url(#978c019524)"><path fill="#000000" d="M 108.355469 99.144531 C 110.464844 97.785156 112.375 96.195312 114.09375 94.367188 C 115.808594 92.542969 117.277344 90.539062 118.5 88.351562 C 119.722656 86.167969 120.660156 83.871094 121.320312 81.457031 C 121.976562 79.042969 122.328125 76.585938 122.382812 74.085938 C 122.382812 60.511719 111.238281 45.375 96.164062 45.375 C 81.089844 45.375 69.949219 60.511719 69.949219 74.085938 C 70 76.585938 70.355469 79.042969 71.011719 81.457031 C 71.667969 83.871094 72.609375 86.167969 73.832031 88.351562 C 75.054688 90.539062 76.523438 92.542969 78.238281 94.367188 C 79.953125 96.195312 81.867188 97.785156 83.976562 99.144531 C 82.730469 99.476562 81.503906 99.859375 80.289062 100.292969 C 79.078125 100.726562 77.882812 101.207031 76.710938 101.738281 C 75.539062 102.269531 74.386719 102.847656 73.261719 103.46875 C 72.136719 104.09375 71.039062 104.761719 69.96875 105.476562 C 68.898438 106.1875 67.855469 106.941406 66.847656 107.742188 C 65.839844 108.539062 64.863281 109.375 63.925781 110.253906 C 62.984375 111.128906 62.082031 112.042969 61.214844 112.996094 C 60.351562 113.945312 59.527344 114.929688 58.742188 115.949219 C 57.957031 116.964844 57.21875 118.011719 56.519531 119.089844 C 55.820312 120.167969 55.167969 121.273438 54.5625 122.40625 C 53.953125 123.535156 53.394531 124.691406 52.878906 125.867188 C 52.367188 127.042969 51.902344 128.238281 51.488281 129.453125 C 51.074219 130.667969 50.710938 131.898438 50.398438 133.140625 C 50.085938 134.386719 49.820312 135.640625 49.613281 136.90625 C 49.402344 138.171875 49.242188 139.445312 49.136719 140.722656 C 49.03125 142 48.976562 143.28125 48.976562 144.5625 C 48.976562 144.910156 49.042969 145.242188 49.175781 145.5625 C 49.308594 145.882812 49.5 146.164062 49.746094 146.410156 C 49.992188 146.65625 50.273438 146.84375 50.59375 146.976562 C 50.917969 147.109375 51.25 147.175781 51.597656 147.175781 L 140.734375 147.175781 C 141.082031 147.175781 141.414062 147.109375 141.734375 146.976562 C 142.058594 146.84375 142.339844 146.65625 142.585938 146.410156 C 142.832031 146.164062 143.023438 145.882812 143.15625 145.5625 C 143.289062 145.242188 143.355469 144.910156 143.355469 144.5625 C 143.351562 143.28125 143.300781 142 143.195312 140.722656 C 143.089844 139.445312 142.929688 138.171875 142.71875 136.90625 C 142.507812 135.640625 142.246094 134.386719 141.933594 133.140625 C 141.621094 131.898438 141.253906 130.667969 140.839844 129.453125 C 140.425781 128.238281 139.964844 127.042969 139.449219 125.867188 C 138.9375 124.691406 138.378906 123.535156 137.769531 122.40625 C 137.164062 121.273438 136.511719 120.167969 135.8125 119.089844 C 135.113281 118.011719 134.371094 116.964844 133.589844 115.949219 C 132.804688 114.929688 131.980469 113.945312 131.113281 112.996094 C 130.25 112.042969 129.347656 111.128906 128.40625 110.253906 C 127.464844 109.375 126.492188 108.539062 125.484375 107.742188 C 124.472656 106.941406 123.433594 106.1875 122.363281 105.476562 C 121.292969 104.761719 120.195312 104.09375 119.070312 103.46875 C 117.941406 102.847656 116.792969 102.269531 115.621094 101.738281 C 114.445312 101.207031 113.253906 100.726562 112.042969 100.292969 C 110.828125 99.859375 109.601562 99.476562 108.355469 99.144531 Z M 75.191406 74.085938 C 75.191406 60.644531 86.335938 50.59375 96.164062 50.59375 C 105.996094 50.59375 117.136719 60.644531 117.136719 74.085938 C 117.136719 87.53125 105.996094 97.578125 96.164062 97.578125 C 86.335938 97.578125 75.191406 87.53125 75.191406 74.085938 Z M 54.351562 141.953125 C 54.453125 140.660156 54.617188 139.371094 54.839844 138.09375 C 55.066406 136.8125 55.347656 135.546875 55.691406 134.292969 C 56.03125 133.039062 56.433594 131.804688 56.890625 130.589844 C 57.347656 129.371094 57.863281 128.179688 58.433594 127.011719 C 59.003906 125.84375 59.625 124.703125 60.300781 123.59375 C 60.976562 122.484375 61.707031 121.40625 62.484375 120.363281 C 63.261719 119.320312 64.085938 118.316406 64.957031 117.347656 C 65.828125 116.382812 66.742188 115.457031 67.699219 114.578125 C 68.660156 113.695312 69.65625 112.859375 70.691406 112.070312 C 71.730469 111.28125 72.800781 110.542969 73.90625 109.855469 C 75.011719 109.164062 76.148438 108.527344 77.3125 107.945312 C 78.476562 107.359375 79.667969 106.832031 80.882812 106.359375 C 82.097656 105.886719 83.332031 105.46875 84.585938 105.113281 C 85.839844 104.753906 87.105469 104.453125 88.390625 104.210938 C 89.671875 103.972656 90.960938 103.789062 92.261719 103.671875 C 93.558594 103.550781 94.859375 103.488281 96.164062 103.488281 C 97.46875 103.488281 98.773438 103.550781 100.070312 103.671875 C 101.371094 103.789062 102.660156 103.972656 103.941406 104.210938 C 105.222656 104.453125 106.492188 104.753906 107.746094 105.113281 C 109 105.46875 110.234375 105.886719 111.449219 106.359375 C 112.664062 106.832031 113.851562 107.359375 115.019531 107.945312 C 116.183594 108.527344 117.320312 109.164062 118.425781 109.855469 C 119.53125 110.542969 120.601562 111.28125 121.636719 112.070312 C 122.675781 112.859375 123.671875 113.695312 124.628906 114.578125 C 125.589844 115.457031 126.503906 116.382812 127.375 117.347656 C 128.246094 118.316406 129.070312 119.320312 129.847656 120.363281 C 130.625 121.40625 131.351562 122.484375 132.027344 123.59375 C 132.707031 124.703125 133.328125 125.84375 133.898438 127.011719 C 134.46875 128.179688 134.980469 129.371094 135.441406 130.589844 C 135.898438 131.804688 136.296875 133.039062 136.640625 134.292969 C 136.984375 135.546875 137.265625 136.8125 137.488281 138.09375 C 137.714844 139.371094 137.875 140.660156 137.980469 141.953125 Z M 54.351562 141.953125 " fill-opacity="1" fill-rule="nonzero"/></g></svg>