<svg xmlns="http://www.w3.org/2000/svg" xmlns:xlink="http://www.w3.org/1999/xlink" width="257" zoomAndPan="magnify" viewBox="0 0 192.75 191.999996" height="256" preserveAspectRatio="xMidYMid meet" version="1.0"><defs><clipPath id="ba50688630"><path d="M 0 0.125 L 192.5 0.125 L 192.5 191.875 L 0 191.875 Z M 0 0.125 " clip-rule="nonzero"/></clipPath><clipPath id="b5c0b5fdae"><path d="M 67 41.046875 L 126 41.046875 L 126 99 L 67 99 Z M 67 41.046875 " clip-rule="nonzero"/></clipPath><clipPath id="bf0a2fcef8"><path d="M 49.1875 100 L 143 100 L 143 151.152344 L 49.1875 151.152344 Z M 49.1875 100 " clip-rule="nonzero"/></clipPath></defs><g clip-path="url(#ba50688630)"><path fill="#ffffff" d="M 0 0.125 L 192.5 0.125 L 192.5 191.875 L 0 191.875 Z M 0 0.125 " fill-opacity="1" fill-rule="nonzero"/><path fill="#f1ceff" d="M 0 0.125 L 192.5 0.125 L 192.5 191.875 L 0 191.875 Z M 0 0.125 " fill-opacity="1" fill-rule="nonzero"/></g><g clip-path="url(#b5c0b5fdae)"><path fill="#000000" d="M 125.046875 69.675781 C 125.046875 70.613281 125.003906 71.546875 124.910156 72.480469 C 124.816406 73.414062 124.679688 74.34375 124.496094 75.261719 C 124.3125 76.179688 124.085938 77.089844 123.8125 77.988281 C 123.542969 78.886719 123.226562 79.765625 122.867188 80.632812 C 122.507812 81.5 122.105469 82.347656 121.664062 83.171875 C 121.222656 84 120.738281 84.804688 120.21875 85.582031 C 119.695312 86.363281 119.136719 87.117188 118.542969 87.839844 C 117.945312 88.566406 117.316406 89.257812 116.652344 89.921875 C 115.988281 90.585938 115.296875 91.214844 114.570312 91.808594 C 113.84375 92.40625 113.089844 92.960938 112.308594 93.484375 C 111.53125 94.003906 110.726562 94.488281 109.898438 94.929688 C 109.070312 95.371094 108.222656 95.769531 107.355469 96.128906 C 106.488281 96.488281 105.605469 96.804688 104.707031 97.078125 C 103.808594 97.347656 102.898438 97.578125 101.980469 97.757812 C 101.058594 97.941406 100.128906 98.078125 99.195312 98.171875 C 98.261719 98.261719 97.324219 98.308594 96.386719 98.308594 C 95.449219 98.308594 94.511719 98.261719 93.578125 98.171875 C 92.644531 98.078125 91.714844 97.941406 90.796875 97.757812 C 89.875 97.578125 88.964844 97.347656 88.066406 97.078125 C 87.167969 96.804688 86.285156 96.488281 85.417969 96.128906 C 84.550781 95.769531 83.703125 95.371094 82.875 94.929688 C 82.050781 94.488281 81.246094 94.003906 80.464844 93.484375 C 79.683594 92.960938 78.929688 92.40625 78.207031 91.808594 C 77.480469 91.214844 76.785156 90.585938 76.121094 89.921875 C 75.457031 89.257812 74.828125 88.566406 74.234375 87.839844 C 73.636719 87.117188 73.078125 86.363281 72.558594 85.582031 C 72.035156 84.804688 71.554688 84 71.109375 83.171875 C 70.667969 82.347656 70.269531 81.5 69.910156 80.632812 C 69.550781 79.765625 69.234375 78.886719 68.960938 77.988281 C 68.6875 77.089844 68.460938 76.179688 68.277344 75.261719 C 68.09375 74.34375 67.957031 73.414062 67.863281 72.480469 C 67.773438 71.546875 67.726562 70.613281 67.726562 69.675781 C 67.726562 68.738281 67.773438 67.800781 67.863281 66.867188 C 67.957031 65.933594 68.09375 65.007812 68.277344 64.089844 C 68.460938 63.167969 68.6875 62.261719 68.960938 61.363281 C 69.234375 60.464844 69.550781 59.585938 69.910156 58.71875 C 70.269531 57.851562 70.667969 57.003906 71.109375 56.175781 C 71.554688 55.351562 72.035156 54.546875 72.558594 53.765625 C 73.078125 52.988281 73.636719 52.234375 74.234375 51.511719 C 74.828125 50.785156 75.457031 50.089844 76.121094 49.429688 C 76.785156 48.765625 77.480469 48.136719 78.207031 47.539062 C 78.929688 46.945312 79.683594 46.386719 80.464844 45.867188 C 81.246094 45.347656 82.050781 44.863281 82.875 44.421875 C 83.703125 43.980469 84.550781 43.578125 85.417969 43.222656 C 86.285156 42.863281 87.167969 42.546875 88.066406 42.273438 C 88.964844 42.003906 89.875 41.773438 90.796875 41.589844 C 91.714844 41.410156 92.644531 41.269531 93.578125 41.179688 C 94.511719 41.085938 95.449219 41.042969 96.386719 41.042969 C 97.324219 41.042969 98.261719 41.085938 99.195312 41.179688 C 100.128906 41.269531 101.058594 41.410156 101.980469 41.589844 C 102.898438 41.773438 103.808594 42.003906 104.707031 42.273438 C 105.605469 42.546875 106.488281 42.863281 107.355469 43.222656 C 108.222656 43.578125 109.070312 43.980469 109.898438 44.421875 C 110.726562 44.863281 111.53125 45.347656 112.308594 45.867188 C 113.089844 46.386719 113.84375 46.945312 114.570312 47.539062 C 115.296875 48.136719 115.988281 48.765625 116.652344 49.429688 C 117.316406 50.089844 117.945312 50.785156 118.542969 51.511719 C 119.136719 52.234375 119.695312 52.988281 120.21875 53.765625 C 120.738281 54.546875 121.222656 55.351562 121.664062 56.175781 C 122.105469 57.003906 122.507812 57.851562 122.867188 58.71875 C 123.226562 59.585938 123.542969 60.464844 123.8125 61.363281 C 124.085938 62.261719 124.3125 63.167969 124.496094 64.089844 C 124.679688 65.007812 124.816406 65.933594 124.910156 66.867188 C 125.003906 67.800781 125.046875 68.738281 125.046875 69.675781 Z M 125.046875 69.675781 " fill-opacity="1" fill-rule="nonzero"/></g><g clip-path="url(#bf0a2fcef8)"><path fill="#000000" d="M 96.386719 100.292969 C 94.148438 100.292969 91.917969 100.441406 89.699219 100.734375 C 87.476562 101.027344 85.285156 101.46875 83.125 102.050781 C 80.960938 102.636719 78.847656 103.359375 76.78125 104.222656 C 74.714844 105.085938 72.714844 106.082031 70.78125 107.207031 C 68.84375 108.335938 66.992188 109.585938 65.222656 110.957031 C 63.453125 112.328125 61.78125 113.8125 60.210938 115.402344 C 58.636719 116.996094 57.175781 118.6875 55.824219 120.472656 C 54.476562 122.257812 53.25 124.125 52.144531 126.070312 C 51.964844 126.390625 51.796875 126.710938 51.640625 127.039062 C 51.480469 127.371094 51.332031 127.703125 51.195312 128.039062 C 51.0625 128.378906 50.933594 128.722656 50.820312 129.066406 C 50.707031 129.414062 50.605469 129.761719 50.511719 130.117188 C 50.421875 130.46875 50.339844 130.824219 50.273438 131.183594 C 50.203125 131.542969 50.148438 131.902344 50.105469 132.265625 C 50.058594 132.625 50.027344 132.988281 50.003906 133.351562 C 49.984375 133.71875 49.976562 134.082031 49.976562 134.445312 C 49.980469 134.8125 49.996094 135.175781 50.023438 135.539062 C 50.046875 135.902344 50.085938 136.265625 50.136719 136.625 C 50.1875 136.988281 50.25 137.347656 50.320312 137.703125 C 50.394531 138.0625 50.480469 138.414062 50.578125 138.765625 C 50.675781 139.117188 50.78125 139.464844 50.902344 139.8125 C 51.019531 140.15625 51.152344 140.496094 51.292969 140.832031 C 51.433594 141.167969 51.585938 141.5 51.75 141.824219 C 51.914062 142.152344 52.085938 142.472656 52.269531 142.789062 C 52.457031 143.101562 52.648438 143.410156 52.855469 143.714844 C 53.058594 144.015625 53.273438 144.308594 53.496094 144.597656 C 53.71875 144.886719 53.953125 145.167969 54.191406 145.441406 C 54.433594 145.714844 54.683594 145.980469 54.945312 146.234375 C 55.203125 146.492188 55.472656 146.742188 55.746094 146.980469 C 56.023438 147.21875 56.304688 147.449219 56.59375 147.671875 C 56.886719 147.890625 57.183594 148.105469 57.484375 148.304688 C 57.789062 148.507812 58.101562 148.699219 58.417969 148.878906 C 58.734375 149.0625 59.054688 149.234375 59.382812 149.394531 C 59.710938 149.554688 60.042969 149.703125 60.382812 149.84375 C 60.71875 149.980469 61.0625 150.109375 61.40625 150.226562 C 61.753906 150.34375 62.101562 150.445312 62.453125 150.539062 C 62.808594 150.636719 63.164062 150.71875 63.519531 150.789062 C 63.878906 150.859375 64.238281 150.917969 64.601562 150.964844 C 64.960938 151.011719 65.324219 151.046875 65.691406 151.070312 C 66.054688 151.09375 66.417969 151.105469 66.785156 151.105469 L 126 151.105469 C 126.367188 151.105469 126.730469 151.09375 127.09375 151.070312 C 127.460938 151.046875 127.820312 151.011719 128.183594 150.964844 C 128.546875 150.917969 128.90625 150.859375 129.265625 150.789062 C 129.621094 150.71875 129.976562 150.636719 130.332031 150.542969 C 130.683594 150.449219 131.03125 150.34375 131.378906 150.226562 C 131.722656 150.109375 132.066406 149.984375 132.402344 149.84375 C 132.742188 149.703125 133.074219 149.554688 133.402344 149.394531 C 133.730469 149.234375 134.050781 149.0625 134.367188 148.882812 C 134.683594 148.699219 134.996094 148.507812 135.300781 148.308594 C 135.605469 148.105469 135.902344 147.894531 136.191406 147.671875 C 136.480469 147.453125 136.765625 147.222656 137.039062 146.980469 C 137.316406 146.742188 137.582031 146.496094 137.839844 146.238281 C 138.101562 145.980469 138.351562 145.714844 138.59375 145.441406 C 138.835938 145.167969 139.066406 144.886719 139.289062 144.601562 C 139.515625 144.3125 139.726562 144.015625 139.933594 143.714844 C 140.136719 143.410156 140.332031 143.101562 140.515625 142.789062 C 140.699219 142.472656 140.871094 142.152344 141.035156 141.824219 C 141.199219 141.5 141.351562 141.167969 141.492188 140.832031 C 141.632812 140.496094 141.765625 140.15625 141.882812 139.8125 C 142.003906 139.464844 142.109375 139.117188 142.207031 138.765625 C 142.304688 138.414062 142.386719 138.058594 142.460938 137.703125 C 142.535156 137.34375 142.597656 136.988281 142.648438 136.625 C 142.695312 136.265625 142.734375 135.902344 142.761719 135.539062 C 142.789062 135.171875 142.800781 134.808594 142.804688 134.445312 C 142.808594 134.082031 142.796875 133.714844 142.777344 133.351562 C 142.753906 132.988281 142.722656 132.625 142.675781 132.261719 C 142.632812 131.902344 142.574219 131.539062 142.507812 131.183594 C 142.4375 130.824219 142.359375 130.46875 142.265625 130.117188 C 142.175781 129.761719 142.070312 129.414062 141.957031 129.066406 C 141.84375 128.71875 141.714844 128.378906 141.578125 128.039062 C 141.441406 127.703125 141.292969 127.367188 141.136719 127.039062 C 140.976562 126.710938 140.808594 126.390625 140.628906 126.070312 C 139.527344 124.125 138.300781 122.257812 136.949219 120.472656 C 135.601562 118.683594 134.140625 116.996094 132.566406 115.402344 C 130.992188 113.808594 129.320312 112.328125 127.550781 110.957031 C 125.78125 109.582031 123.929688 108.335938 121.996094 107.207031 C 120.0625 106.078125 118.0625 105.085938 115.996094 104.222656 C 113.929688 103.359375 111.8125 102.636719 109.652344 102.050781 C 107.488281 101.46875 105.296875 101.027344 103.078125 100.734375 C 100.855469 100.4375 98.628906 100.292969 96.386719 100.292969 Z M 96.386719 100.292969 " fill-opacity="1" fill-rule="nonzero"/></g></svg>