<svg xmlns="http://www.w3.org/2000/svg" xmlns:xlink="http://www.w3.org/1999/xlink" width="500" zoomAndPan="magnify" viewBox="0 0 375 374.999991" height="500" preserveAspectRatio="xMidYMid meet" version="1.0"><defs><clipPath id="e8af209423"><path d="M 70.484375 28.023438 L 304.484375 28.023438 L 304.484375 346.773438 L 70.484375 346.773438 Z M 70.484375 28.023438 " clip-rule="nonzero"/></clipPath></defs><rect x="-37.5" width="450" fill="#ffffff" y="-37.499999" height="449.999989" fill-opacity="1"/><rect x="-37.5" width="450" fill="#d8e8ed" y="-37.499999" height="449.999989" fill-opacity="1"/><path fill="#e6affc" d="M 164.945312 113.617188 C 160.855469 113.617188 156.765625 115.175781 153.671875 118.269531 C 150.660156 121.28125 149.019531 125.289062 149.019531 129.566406 C 149.019531 133.820312 150.660156 137.828125 153.671875 140.839844 L 187.496094 174.667969 L 221.324219 140.839844 C 224.332031 137.828125 225.972656 133.820312 225.972656 129.566406 C 225.972656 125.289062 224.332031 121.28125 221.324219 118.269531 C 215.136719 112.058594 204.980469 112.082031 198.730469 118.289062 L 191.253906 125.765625 C 189.179688 127.84375 185.816406 127.84375 183.738281 125.765625 L 176.242188 118.269531 C 173.128906 115.175781 169.035156 113.617188 164.945312 113.617188 Z M 187.496094 187.5 C 186.125 187.5 184.777344 186.980469 183.738281 185.941406 L 146.152344 148.359375 C 141.148438 143.351562 138.386719 136.667969 138.386719 129.566406 C 138.386719 122.441406 141.148438 115.777344 146.152344 110.753906 C 156.496094 100.433594 173.355469 100.410156 183.738281 110.730469 L 187.496094 114.488281 L 191.234375 110.753906 C 201.636719 100.410156 218.5 100.410156 228.839844 110.753906 C 233.84375 115.777344 236.605469 122.441406 236.605469 129.566406 C 236.605469 136.667969 233.84375 143.332031 228.839844 148.359375 L 191.253906 185.941406 C 190.21875 186.980469 188.867188 187.5 187.496094 187.5 " fill-opacity="1" fill-rule="nonzero"/><path fill="#e6affc" d="M 187.496094 70.550781 C 149.394531 70.550781 118.390625 101.554688 118.390625 139.65625 C 118.390625 177.761719 149.394531 208.761719 187.496094 208.761719 C 225.601562 208.761719 256.601562 177.761719 256.601562 139.65625 C 256.601562 101.554688 225.601562 70.550781 187.496094 70.550781 Z M 187.496094 219.394531 C 143.539062 219.394531 107.757812 183.617188 107.757812 139.65625 C 107.757812 95.699219 143.539062 59.917969 187.496094 59.917969 C 231.476562 59.917969 267.234375 95.699219 267.234375 139.65625 C 267.234375 183.617188 231.476562 219.394531 187.496094 219.394531 " fill-opacity="1" fill-rule="nonzero"/><g clip-path="url(#e8af209423)"><path fill="#e6affc" d="M 187.496094 336.34375 C 129.023438 336.34375 97.128906 322.285156 97.128906 315.078125 C 97.128906 310.054688 114.839844 299.257812 157.160156 295.1875 C 171.527344 311.632812 182.328125 322.699219 183.695312 324.113281 C 184.695312 325.128906 186.0625 325.710938 187.496094 325.710938 C 188.929688 325.710938 190.300781 325.128906 191.296875 324.113281 C 192.667969 322.699219 203.464844 311.632812 217.835938 295.1875 C 260.152344 299.257812 277.867188 310.054688 277.867188 315.078125 C 277.867188 322.285156 245.972656 336.34375 187.496094 336.34375 Z M 187.496094 38.65625 C 246.117188 38.65625 293.8125 86.355469 293.8125 144.972656 C 293.8125 197.464844 206.890625 292.238281 187.496094 312.710938 C 168.101562 292.238281 81.179688 197.488281 81.179688 144.972656 C 81.179688 86.355469 128.878906 38.65625 187.496094 38.65625 Z M 226.246094 285.40625 C 259.53125 246.117188 304.445312 185.566406 304.445312 144.972656 C 304.445312 80.476562 251.992188 28.023438 187.496094 28.023438 C 123 28.023438 70.546875 80.476562 70.546875 144.972656 C 70.546875 185.566406 115.464844 246.117188 148.75 285.40625 C 126.21875 288.210938 86.496094 295.871094 86.496094 315.078125 C 86.496094 336.011719 137.308594 346.972656 187.496094 346.972656 C 237.6875 346.972656 288.496094 336.011719 288.496094 315.078125 C 288.496094 295.871094 248.773438 288.210938 226.246094 285.40625 " fill-opacity="1" fill-rule="nonzero"/></g></svg>