<svg xmlns="http://www.w3.org/2000/svg" xmlns:xlink="http://www.w3.org/1999/xlink" width="500" zoomAndPan="magnify" viewBox="0 0 375 374.999991" height="500" preserveAspectRatio="xMidYMid meet" version="1.0"><defs><clipPath id="99fd0e9c55"><path d="M 43.417969 37.5 L 331.417969 37.5 L 331.417969 329 L 43.417969 329 Z M 43.417969 37.5 " clip-rule="nonzero"/></clipPath></defs><rect x="-37.5" width="450" fill="#ffffff" y="-37.499999" height="449.999989" fill-opacity="1"/><rect x="-37.5" width="450" fill="#d8e8ed" y="-37.499999" height="449.999989" fill-opacity="1"/><g clip-path="url(#99fd0e9c55)"><path fill="#ffffff" d="M 331.570312 181.597656 C 331.570312 261.15625 267.074219 325.652344 187.519531 325.652344 C 181.714844 325.660156 175.933594 325.320312 170.175781 324.625 C 164.414062 323.933594 158.714844 322.894531 153.082031 321.511719 C 147.449219 320.125 141.917969 318.40625 136.492188 316.351562 C 131.066406 314.292969 125.785156 311.917969 120.648438 309.222656 C 120.589844 309.246094 120.535156 309.269531 120.476562 309.296875 L 77.054688 327.339844 C 63.464844 332.988281 49.761719 319.542969 55.148438 305.851562 L 70.800781 266.046875 C 66.375 259.949219 62.457031 253.539062 59.039062 246.824219 C 55.625 240.105469 52.753906 233.160156 50.433594 225.992188 C 48.113281 218.820312 46.367188 211.515625 45.199219 204.070312 C 44.03125 196.625 43.453125 189.132812 43.464844 181.597656 C 43.464844 102.039062 107.960938 37.542969 187.519531 37.542969 C 267.074219 37.542969 331.570312 102.039062 331.570312 181.597656 Z M 331.570312 181.597656 " fill-opacity="1" fill-rule="nonzero"/></g><path fill="#e6affc" d="M 312.878906 181.597656 C 312.878906 183.648438 312.828125 185.699219 312.730469 187.75 C 312.628906 189.796875 312.476562 191.84375 312.277344 193.886719 C 312.074219 195.925781 311.824219 197.964844 311.523438 199.992188 C 311.222656 202.023438 310.871094 204.042969 310.472656 206.054688 C 310.070312 208.066406 309.621094 210.066406 309.125 212.058594 C 308.625 214.046875 308.078125 216.027344 307.480469 217.988281 C 306.886719 219.953125 306.242188 221.898438 305.550781 223.832031 C 304.859375 225.761719 304.121094 227.675781 303.335938 229.570312 C 302.550781 231.46875 301.722656 233.34375 300.84375 235.199219 C 299.96875 237.050781 299.042969 238.882812 298.078125 240.695312 C 297.109375 242.503906 296.101562 244.289062 295.042969 246.046875 C 293.988281 247.808594 292.894531 249.539062 291.753906 251.246094 C 290.613281 252.953125 289.433594 254.628906 288.210938 256.277344 C 286.988281 257.925781 285.726562 259.542969 284.425781 261.128906 C 283.121094 262.714844 281.78125 264.265625 280.40625 265.785156 C 279.027344 267.304688 277.613281 268.792969 276.164062 270.242188 C 274.710938 271.691406 273.226562 273.109375 271.707031 274.484375 C 270.1875 275.863281 268.632812 277.203125 267.046875 278.503906 C 265.460938 279.804688 263.84375 281.066406 262.195312 282.289062 C 260.546875 283.511719 258.871094 284.691406 257.164062 285.832031 C 255.460938 286.972656 253.726562 288.070312 251.96875 289.125 C 250.207031 290.179688 248.421875 291.191406 246.613281 292.15625 C 244.804688 293.125 242.972656 294.046875 241.117188 294.925781 C 239.261719 295.800781 237.386719 296.632812 235.492188 297.417969 C 233.597656 298.203125 231.683594 298.941406 229.75 299.632812 C 227.820312 300.324219 225.871094 300.96875 223.910156 301.5625 C 221.945312 302.15625 219.96875 302.703125 217.976562 303.203125 C 215.988281 303.703125 213.988281 304.152344 211.976562 304.550781 C 209.960938 304.953125 207.941406 305.300781 205.914062 305.605469 C 203.882812 305.90625 201.847656 306.15625 199.804688 306.355469 C 197.765625 306.558594 195.71875 306.707031 193.667969 306.808594 C 191.621094 306.910156 189.570312 306.960938 187.519531 306.960938 C 185.464844 306.960938 183.414062 306.910156 181.367188 306.808594 C 179.316406 306.707031 177.273438 306.558594 175.230469 306.355469 C 173.1875 306.15625 171.152344 305.90625 169.125 305.605469 C 167.09375 305.300781 165.074219 304.953125 163.0625 304.550781 C 161.046875 304.152344 159.046875 303.703125 157.058594 303.203125 C 155.066406 302.703125 153.089844 302.15625 151.128906 301.5625 C 149.164062 300.964844 147.214844 300.324219 145.285156 299.632812 C 143.351562 298.941406 141.4375 298.203125 139.542969 297.417969 C 137.648438 296.632812 135.773438 295.800781 133.917969 294.925781 C 132.0625 294.046875 130.230469 293.125 128.421875 292.15625 C 126.613281 291.191406 124.828125 290.179688 123.070312 289.125 C 121.308594 288.070312 119.574219 286.972656 117.871094 285.832031 C 116.164062 284.691406 114.488281 283.511719 112.839844 282.289062 C 111.191406 281.066406 109.574219 279.804688 107.988281 278.503906 C 106.402344 277.203125 104.851562 275.863281 103.328125 274.484375 C 101.808594 273.109375 100.324219 271.691406 98.875 270.242188 C 97.421875 268.792969 96.007812 267.304688 94.628906 265.785156 C 93.253906 264.265625 91.914062 262.714844 90.609375 261.128906 C 89.308594 259.542969 88.046875 257.925781 86.824219 256.277344 C 85.601562 254.628906 84.421875 252.953125 83.28125 251.246094 C 82.144531 249.539062 81.046875 247.808594 79.992188 246.046875 C 78.9375 244.289062 77.925781 242.503906 76.957031 240.695312 C 75.992188 238.882812 75.070312 237.050781 74.191406 235.199219 C 73.3125 233.34375 72.484375 231.46875 71.699219 229.570312 C 70.914062 227.675781 70.175781 225.761719 69.484375 223.832031 C 68.792969 221.898438 68.148438 219.953125 67.554688 217.988281 C 66.957031 216.027344 66.410156 214.046875 65.914062 212.058594 C 65.414062 210.066406 64.964844 208.066406 64.5625 206.054688 C 64.164062 204.042969 63.8125 202.023438 63.511719 199.992188 C 63.210938 197.964844 62.960938 195.925781 62.757812 193.886719 C 62.558594 191.84375 62.40625 189.796875 62.304688 187.75 C 62.207031 185.699219 62.15625 183.648438 62.15625 181.597656 C 62.15625 179.546875 62.207031 177.496094 62.304688 175.445312 C 62.40625 173.398438 62.558594 171.351562 62.757812 169.308594 C 62.960938 167.269531 63.210938 165.234375 63.511719 163.203125 C 63.8125 161.175781 64.164062 159.152344 64.5625 157.140625 C 64.964844 155.128906 65.414062 153.128906 65.914062 151.136719 C 66.410156 149.148438 66.957031 147.171875 67.554688 145.207031 C 68.148438 143.242188 68.792969 141.296875 69.484375 139.363281 C 70.175781 137.433594 70.914062 135.519531 71.699219 133.625 C 72.484375 131.726562 73.3125 129.851562 74.191406 128 C 75.070312 126.144531 75.992188 124.3125 76.957031 122.503906 C 77.925781 120.691406 78.9375 118.910156 79.992188 117.148438 C 81.046875 115.390625 82.144531 113.65625 83.28125 111.949219 C 84.421875 110.246094 85.601562 108.566406 86.824219 106.917969 C 88.046875 105.273438 89.308594 103.65625 90.609375 102.070312 C 91.914062 100.484375 93.253906 98.929688 94.628906 97.410156 C 96.007812 95.890625 97.421875 94.402344 98.875 92.953125 C 100.324219 91.503906 101.808594 90.089844 103.328125 88.710938 C 104.851562 87.332031 106.402344 85.992188 107.988281 84.691406 C 109.574219 83.390625 111.191406 82.128906 112.839844 80.90625 C 114.488281 79.683594 116.164062 78.503906 117.871094 77.363281 C 119.574219 76.222656 121.308594 75.125 123.070312 74.070312 C 124.828125 73.015625 126.613281 72.003906 128.421875 71.039062 C 130.230469 70.070312 132.0625 69.148438 133.917969 68.269531 C 135.773438 67.394531 137.648438 66.5625 139.542969 65.777344 C 141.4375 64.992188 143.351562 64.253906 145.285156 63.5625 C 147.214844 62.871094 149.164062 62.230469 151.128906 61.632812 C 153.089844 61.039062 155.066406 60.492188 157.058594 59.992188 C 159.046875 59.492188 161.046875 59.042969 163.0625 58.644531 C 165.074219 58.242188 167.09375 57.894531 169.125 57.59375 C 171.152344 57.292969 173.1875 57.039062 175.230469 56.839844 C 177.273438 56.636719 179.316406 56.488281 181.367188 56.386719 C 183.414062 56.285156 185.464844 56.234375 187.519531 56.234375 C 189.570312 56.234375 191.621094 56.285156 193.667969 56.386719 C 195.71875 56.488281 197.765625 56.636719 199.804688 56.839844 C 201.847656 57.039062 203.882812 57.292969 205.914062 57.59375 C 207.941406 57.894531 209.960938 58.242188 211.976562 58.644531 C 213.988281 59.042969 215.988281 59.492188 217.976562 59.992188 C 219.96875 60.492188 221.945312 61.039062 223.910156 61.632812 C 225.871094 62.230469 227.820312 62.871094 229.75 63.5625 C 231.683594 64.253906 233.597656 64.992188 235.492188 65.777344 C 237.386719 66.5625 239.261719 67.394531 241.117188 68.269531 C 242.972656 69.148438 244.804688 70.070312 246.613281 71.039062 C 248.421875 72.003906 250.207031 73.015625 251.96875 74.070312 C 253.726562 75.125 255.460938 76.222656 257.164062 77.363281 C 258.871094 78.503906 260.546875 79.683594 262.195312 80.90625 C 263.84375 82.128906 265.460938 83.390625 267.046875 84.691406 C 268.632812 85.992188 270.1875 87.332031 271.707031 88.710938 C 273.226562 90.089844 274.710938 91.503906 276.164062 92.953125 C 277.613281 94.402344 279.027344 95.890625 280.40625 97.410156 C 281.78125 98.929688 283.121094 100.484375 284.425781 102.070312 C 285.726562 103.65625 286.988281 105.273438 288.210938 106.917969 C 289.433594 108.566406 290.613281 110.246094 291.753906 111.949219 C 292.894531 113.65625 293.988281 115.390625 295.042969 117.148438 C 296.101562 118.910156 297.109375 120.691406 298.078125 122.503906 C 299.042969 124.3125 299.96875 126.144531 300.84375 128 C 301.722656 129.851562 302.550781 131.726562 303.335938 133.625 C 304.121094 135.519531 304.859375 137.433594 305.550781 139.363281 C 306.242188 141.296875 306.886719 143.242188 307.480469 145.207031 C 308.078125 147.171875 308.625 149.148438 309.125 151.136719 C 309.621094 153.128906 310.070312 155.128906 310.472656 157.140625 C 310.871094 159.152344 311.222656 161.175781 311.523438 163.203125 C 311.824219 165.234375 312.074219 167.269531 312.277344 169.308594 C 312.476562 171.351562 312.628906 173.398438 312.730469 175.445312 C 312.828125 177.496094 312.878906 179.546875 312.878906 181.597656 Z M 312.878906 181.597656 " fill-opacity="1" fill-rule="nonzero"/><path fill="#ffffff" d="M 295.320312 181.597656 C 295.320312 183.363281 295.277344 185.125 295.191406 186.886719 C 295.105469 188.648438 294.976562 190.410156 294.804688 192.164062 C 294.628906 193.921875 294.414062 195.671875 294.15625 197.417969 C 293.894531 199.160156 293.59375 200.898438 293.25 202.628906 C 292.90625 204.359375 292.519531 206.082031 292.089844 207.792969 C 291.664062 209.503906 291.191406 211.203125 290.679688 212.890625 C 290.167969 214.582031 289.613281 216.253906 289.019531 217.914062 C 288.425781 219.578125 287.792969 221.222656 287.117188 222.851562 C 286.441406 224.484375 285.726562 226.09375 284.972656 227.691406 C 284.21875 229.285156 283.425781 230.859375 282.59375 232.417969 C 281.761719 233.972656 280.890625 235.507812 279.984375 237.019531 C 279.078125 238.535156 278.132812 240.023438 277.152344 241.492188 C 276.171875 242.957031 275.15625 244.398438 274.105469 245.816406 C 273.054688 247.234375 271.972656 248.625 270.851562 249.988281 C 269.730469 251.351562 268.582031 252.6875 267.394531 253.996094 C 266.210938 255.300781 264.996094 256.578125 263.746094 257.828125 C 262.5 259.074219 261.222656 260.289062 259.914062 261.476562 C 258.609375 262.660156 257.273438 263.8125 255.90625 264.933594 C 254.542969 266.050781 253.152344 267.136719 251.738281 268.1875 C 250.320312 269.238281 248.878906 270.253906 247.410156 271.234375 C 245.945312 272.214844 244.453125 273.15625 242.941406 274.066406 C 241.425781 274.972656 239.890625 275.839844 238.335938 276.671875 C 236.78125 277.503906 235.203125 278.296875 233.609375 279.050781 C 232.015625 279.804688 230.402344 280.519531 228.773438 281.195312 C 227.144531 281.871094 225.496094 282.507812 223.835938 283.101562 C 222.175781 283.695312 220.5 284.246094 218.8125 284.761719 C 217.125 285.273438 215.421875 285.742188 213.710938 286.171875 C 212 286.601562 210.28125 286.988281 208.550781 287.332031 C 206.820312 287.675781 205.082031 287.976562 203.335938 288.234375 C 201.589844 288.496094 199.839844 288.710938 198.085938 288.882812 C 196.328125 289.054688 194.570312 289.1875 192.808594 289.273438 C 191.046875 289.359375 189.28125 289.402344 187.519531 289.402344 C 185.753906 289.402344 183.992188 289.359375 182.226562 289.273438 C 180.464844 289.1875 178.707031 289.054688 176.953125 288.882812 C 175.195312 288.710938 173.445312 288.496094 171.699219 288.234375 C 169.953125 287.976562 168.214844 287.675781 166.484375 287.332031 C 164.753906 286.988281 163.035156 286.601562 161.324219 286.171875 C 159.613281 285.742188 157.914062 285.273438 156.222656 284.761719 C 154.535156 284.246094 152.859375 283.695312 151.199219 283.101562 C 149.539062 282.507812 147.894531 281.871094 146.261719 281.195312 C 144.632812 280.519531 143.019531 279.804688 141.425781 279.050781 C 139.832031 278.296875 138.253906 277.503906 136.699219 276.671875 C 135.144531 275.839844 133.609375 274.972656 132.09375 274.066406 C 130.582031 273.15625 129.09375 272.214844 127.625 271.234375 C 126.15625 270.253906 124.714844 269.238281 123.300781 268.1875 C 121.882812 267.136719 120.492188 266.050781 119.128906 264.933594 C 117.765625 263.8125 116.429688 262.660156 115.121094 261.476562 C 113.8125 260.289062 112.535156 259.074219 111.289062 257.828125 C 110.042969 256.578125 108.824219 255.300781 107.640625 253.996094 C 106.457031 252.6875 105.304688 251.351562 104.183594 249.988281 C 103.066406 248.625 101.980469 247.234375 100.929688 245.816406 C 99.878906 244.398438 98.863281 242.957031 97.882812 241.492188 C 96.902344 240.023438 95.957031 238.535156 95.050781 237.019531 C 94.144531 235.507812 93.273438 233.972656 92.441406 232.417969 C 91.609375 230.859375 90.816406 229.285156 90.0625 227.691406 C 89.308594 226.09375 88.59375 224.484375 87.917969 222.851562 C 87.246094 221.222656 86.609375 219.578125 86.015625 217.914062 C 85.421875 216.253906 84.867188 214.582031 84.355469 212.890625 C 83.84375 211.203125 83.371094 209.503906 82.945312 207.792969 C 82.515625 206.082031 82.128906 204.359375 81.785156 202.628906 C 81.441406 200.898438 81.140625 199.160156 80.878906 197.414062 C 80.621094 195.671875 80.40625 193.921875 80.234375 192.164062 C 80.058594 190.410156 79.929688 188.648438 79.84375 186.886719 C 79.757812 185.125 79.714844 183.363281 79.714844 181.597656 C 79.714844 179.832031 79.757812 178.070312 79.84375 176.308594 C 79.929688 174.546875 80.058594 172.785156 80.234375 171.03125 C 80.40625 169.273438 80.621094 167.523438 80.878906 165.78125 C 81.140625 164.035156 81.441406 162.296875 81.785156 160.566406 C 82.128906 158.835938 82.515625 157.113281 82.945312 155.402344 C 83.371094 153.691406 83.84375 151.992188 84.355469 150.304688 C 84.867188 148.617188 85.421875 146.941406 86.015625 145.28125 C 86.609375 143.617188 87.246094 141.972656 87.917969 140.34375 C 88.59375 138.714844 89.308594 137.101562 90.0625 135.503906 C 90.816406 133.910156 91.609375 132.335938 92.441406 130.777344 C 93.273438 129.222656 94.144531 127.6875 95.050781 126.175781 C 95.957031 124.660156 96.902344 123.171875 97.882812 121.703125 C 98.863281 120.238281 99.878906 118.796875 100.929688 117.378906 C 101.980469 115.960938 103.066406 114.570312 104.183594 113.207031 C 105.304688 111.84375 106.457031 110.507812 107.640625 109.199219 C 108.824219 107.894531 110.042969 106.617188 111.289062 105.367188 C 112.535156 104.121094 113.8125 102.90625 115.121094 101.71875 C 116.429688 100.535156 117.765625 99.382812 119.128906 98.265625 C 120.492188 97.144531 121.882812 96.058594 123.300781 95.007812 C 124.714844 93.957031 126.15625 92.941406 127.625 91.960938 C 129.09375 90.980469 130.582031 90.039062 132.09375 89.132812 C 133.609375 88.222656 135.144531 87.355469 136.699219 86.523438 C 138.253906 85.691406 139.832031 84.898438 141.425781 84.144531 C 143.019531 83.390625 144.632812 82.675781 146.261719 82 C 147.894531 81.324219 149.539062 80.691406 151.199219 80.09375 C 152.859375 79.5 154.535156 78.949219 156.222656 78.4375 C 157.914062 77.921875 159.613281 77.453125 161.324219 77.023438 C 163.035156 76.59375 164.753906 76.210938 166.484375 75.863281 C 168.214844 75.519531 169.953125 75.21875 171.699219 74.960938 C 173.445312 74.703125 175.195312 74.484375 176.953125 74.3125 C 178.707031 74.140625 180.464844 74.011719 182.226562 73.921875 C 183.992188 73.835938 185.753906 73.792969 187.519531 73.792969 C 189.28125 73.792969 191.046875 73.835938 192.808594 73.921875 C 194.570312 74.011719 196.328125 74.140625 198.085938 74.3125 C 199.839844 74.484375 201.589844 74.703125 203.335938 74.960938 C 205.082031 75.21875 206.820312 75.519531 208.550781 75.863281 C 210.28125 76.210938 212 76.59375 213.710938 77.023438 C 215.421875 77.453125 217.125 77.921875 218.8125 78.4375 C 220.5 78.949219 222.175781 79.5 223.835938 80.09375 C 225.496094 80.691406 227.144531 81.324219 228.773438 82 C 230.402344 82.675781 232.015625 83.390625 233.609375 84.144531 C 235.203125 84.898438 236.78125 85.691406 238.335938 86.523438 C 239.890625 87.355469 241.425781 88.222656 242.941406 89.132812 C 244.453125 90.039062 245.945312 90.980469 247.410156 91.960938 C 248.878906 92.941406 250.320312 93.957031 251.738281 95.007812 C 253.152344 96.058594 254.542969 97.144531 255.90625 98.265625 C 257.273438 99.382812 258.609375 100.535156 259.914062 101.71875 C 261.222656 102.90625 262.5 104.121094 263.746094 105.367188 C 264.996094 106.617188 266.210938 107.894531 267.394531 109.199219 C 268.582031 110.507812 269.730469 111.84375 270.851562 113.207031 C 271.972656 114.570312 273.054688 115.960938 274.105469 117.378906 C 275.15625 118.796875 276.171875 120.238281 277.152344 121.703125 C 278.132812 123.171875 279.078125 124.660156 279.984375 126.175781 C 280.890625 127.6875 281.761719 129.222656 282.59375 130.777344 C 283.425781 132.335938 284.21875 133.910156 284.972656 135.503906 C 285.726562 137.101562 286.441406 138.714844 287.117188 140.34375 C 287.792969 141.972656 288.425781 143.617188 289.019531 145.28125 C 289.613281 146.941406 290.167969 148.617188 290.679688 150.304688 C 291.191406 151.992188 291.664062 153.691406 292.089844 155.402344 C 292.519531 157.113281 292.90625 158.835938 293.25 160.566406 C 293.59375 162.296875 293.894531 164.035156 294.15625 165.78125 C 294.414062 167.523438 294.628906 169.273438 294.804688 171.03125 C 294.976562 172.785156 295.105469 174.546875 295.191406 176.308594 C 295.277344 178.070312 295.320312 179.832031 295.320312 181.597656 Z M 295.320312 181.597656 " fill-opacity="1" fill-rule="nonzero"/><path fill="#e6affc" d="M 173.675781 146.382812 L 169.480469 128.667969 C 169.359375 128.164062 169.214844 127.667969 169.042969 127.179688 C 168.871094 126.691406 168.675781 126.210938 168.453125 125.742188 C 168.230469 125.273438 167.984375 124.820312 167.714844 124.378906 C 167.445312 123.933594 167.152344 123.507812 166.835938 123.097656 C 166.519531 122.683594 166.183594 122.292969 165.828125 121.914062 C 165.472656 121.539062 165.097656 121.183594 164.703125 120.847656 C 164.308594 120.511719 163.898438 120.195312 163.46875 119.902344 C 163.042969 119.609375 162.601562 119.339844 162.144531 119.089844 C 161.691406 118.84375 161.222656 118.621094 160.742188 118.425781 C 160.265625 118.226562 159.777344 118.054688 159.277344 117.910156 C 158.78125 117.761719 158.277344 117.644531 157.769531 117.550781 C 157.257812 117.457031 156.746094 117.390625 156.226562 117.351562 C 155.710938 117.3125 155.195312 117.300781 154.675781 117.316406 C 154.15625 117.332031 153.640625 117.375 153.128906 117.445312 C 152.617188 117.515625 152.105469 117.613281 151.605469 117.734375 C 151.101562 117.859375 150.605469 118.007812 150.117188 118.183594 L 140.441406 121.667969 C 139.660156 121.949219 138.90625 122.292969 138.183594 122.703125 C 137.457031 123.113281 136.773438 123.582031 136.128906 124.105469 C 135.484375 124.628906 134.886719 125.207031 134.339844 125.832031 C 133.792969 126.457031 133.300781 127.125 132.863281 127.835938 C 132.429688 128.542969 132.054688 129.285156 131.746094 130.054688 C 131.4375 130.828125 131.191406 131.621094 131.015625 132.433594 C 130.839844 133.246094 130.734375 134.066406 130.695312 134.898438 C 130.660156 135.730469 130.691406 136.558594 130.792969 137.382812 C 134.167969 164.777344 149.6875 231.050781 221.066406 245.613281 C 221.769531 245.757812 222.480469 245.851562 223.199219 245.890625 C 223.917969 245.929688 224.632812 245.917969 225.351562 245.851562 C 226.066406 245.789062 226.773438 245.671875 227.472656 245.503906 C 228.171875 245.335938 228.855469 245.117188 229.523438 244.847656 C 230.191406 244.582031 230.835938 244.265625 231.457031 243.90625 C 232.078125 243.542969 232.667969 243.136719 233.230469 242.6875 C 233.792969 242.242188 234.320312 241.753906 234.808594 241.226562 C 235.300781 240.703125 235.75 240.144531 236.160156 239.554688 L 241.714844 231.53125 C 242.265625 230.734375 242.734375 229.890625 243.121094 229 C 243.503906 228.113281 243.800781 227.195312 244.003906 226.246094 C 244.210938 225.300781 244.320312 224.339844 244.335938 223.371094 C 244.351562 222.402344 244.273438 221.441406 244.101562 220.488281 C 243.925781 219.535156 243.664062 218.609375 243.304688 217.707031 C 242.949219 216.804688 242.507812 215.945312 241.984375 215.132812 C 241.460938 214.316406 240.859375 213.5625 240.1875 212.867188 C 239.511719 212.167969 238.777344 211.546875 237.980469 210.992188 L 237.886719 210.929688 L 225.683594 202.621094 C 225.027344 202.171875 224.335938 201.78125 223.617188 201.445312 C 222.898438 201.109375 222.15625 200.832031 221.394531 200.617188 C 220.628906 200.402344 219.851562 200.246094 219.0625 200.15625 C 218.273438 200.066406 217.484375 200.039062 216.691406 200.074219 C 215.898438 200.113281 215.113281 200.214844 214.335938 200.375 C 213.558594 200.539062 212.800781 200.765625 212.058594 201.050781 C 211.320312 201.335938 210.605469 201.679688 209.921875 202.082031 C 209.234375 202.480469 208.585938 202.933594 207.972656 203.441406 C 207.367188 203.945312 206.722656 204.394531 206.042969 204.796875 C 205.363281 205.195312 204.652344 205.539062 203.917969 205.824219 C 203.183594 206.109375 202.429688 206.335938 201.65625 206.5 C 200.886719 206.667969 200.105469 206.769531 199.316406 206.808594 C 198.527344 206.847656 197.742188 206.824219 196.957031 206.738281 C 196.171875 206.652344 195.402344 206.503906 194.640625 206.292969 C 193.878906 206.082031 193.140625 205.8125 192.425781 205.480469 C 191.707031 205.152344 191.019531 204.769531 190.367188 204.328125 C 182.941406 199.328125 172.894531 191.03125 166.367188 179.535156 C 166 178.894531 165.683594 178.230469 165.417969 177.539062 C 165.152344 176.851562 164.9375 176.148438 164.777344 175.429688 C 164.617188 174.707031 164.511719 173.980469 164.457031 173.242188 C 164.40625 172.507812 164.410156 171.769531 164.46875 171.035156 C 164.523438 170.300781 164.636719 169.574219 164.804688 168.855469 C 164.96875 168.136719 165.191406 167.433594 165.460938 166.746094 C 165.734375 166.058594 166.054688 165.398438 166.425781 164.761719 C 166.796875 164.121094 167.210938 163.515625 167.675781 162.9375 L 170.8125 159.035156 C 171.519531 158.160156 172.117188 157.214844 172.605469 156.203125 C 173.09375 155.191406 173.460938 154.136719 173.710938 153.039062 C 173.957031 151.945312 174.078125 150.832031 174.074219 149.707031 C 174.066406 148.585938 173.933594 147.476562 173.675781 146.382812 Z M 173.675781 146.382812 " fill-opacity="1" fill-rule="nonzero"/></svg>